<svg width="531" height="76" viewBox="0 0 531 76" fill="none" xmlns="http://www.w3.org/2000/svg">
<path d="M70.1084 18.912L68.4818 16.0707C68.3547 15.8483 68.178 15.6582 67.9654 15.5152C67.7528 15.3722 67.5102 15.2801 67.2563 15.2462C67.0023 15.2122 66.744 15.2372 66.5013 15.3193C66.2587 15.4014 66.0382 15.5384 65.857 15.7195L62.1417 19.4349C61.8681 19.7086 61.6978 20.0687 61.6597 20.4538C61.6217 20.839 61.7183 21.2254 61.9331 21.5474C63.2906 23.6204 64.3777 25.8584 65.1678 28.2071C66.6439 32.5955 67.0548 37.272 66.3667 41.8506C65.6786 46.4292 63.9113 50.7784 61.2106 54.5391C58.5099 58.2999 54.9533 61.3642 50.8345 63.4791C46.7158 65.594 42.153 66.6987 37.5231 66.7022C32.7533 66.7157 28.0542 65.5491 23.8446 63.3063L30.1425 57.0111C33.2969 58.2051 36.694 58.6158 40.042 58.2077C43.3901 57.7995 46.589 56.5849 49.3642 54.668C52.1394 52.7512 54.4079 50.1894 55.9748 47.2026C57.5417 44.2159 58.3603 40.8934 58.3603 37.5206C58.3589 36.7998 58.3192 36.0797 58.2415 35.3632C57.9944 32.9577 57.3296 30.6137 56.2768 28.4368C56.1592 28.2003 55.9872 27.9951 55.775 27.838C55.5628 27.6808 55.3163 27.5761 55.0558 27.5326C54.7953 27.4891 54.5283 27.5079 54.2765 27.5875C54.0246 27.6671 53.7953 27.8052 53.6071 27.9905L49.8363 31.7614C49.6355 31.9616 49.4891 32.2098 49.411 32.4824C49.3329 32.7551 49.3257 33.0431 49.3901 33.3193L49.7069 34.674C50.2641 37.0436 50.1173 39.5244 49.2845 41.8119C48.4517 44.0993 46.9692 46.0938 45.0189 47.5505C43.0686 49.0073 40.7354 49.8629 38.3057 50.0124C35.876 50.1619 33.4555 49.5987 31.3413 48.392L29.683 47.4414C29.3656 47.2584 28.9968 47.185 28.6335 47.2328C28.2702 47.2805 27.9328 47.4467 27.6735 47.7055L12.2892 63.0713C12.1214 63.239 11.9913 63.4406 11.9077 63.6627C11.8241 63.8847 11.7888 64.122 11.8043 64.3588C11.8198 64.5955 11.8857 64.8262 11.9976 65.0354C12.1094 65.2447 12.2647 65.4276 12.4529 65.572L14.7186 67.3095C21.2519 72.3449 29.2745 75.064 37.5231 75.0387C58.2098 75.0387 75.0411 58.2073 75.0411 37.5206C75.0429 30.9943 73.3427 24.5805 70.1084 18.912Z" fill="url(#paint0_linear_4678_18073)"/>
<path d="M60.3226 7.7293C53.7901 2.69431 45.7684 -0.0247985 37.5207 0.000170439C16.8314 0.000170439 5.70316e-07 16.8316 5.70316e-07 37.5209C-0.00113682 44.0471 1.69899 50.4608 4.9327 56.1294L6.55933 58.9708C6.68622 59.1958 6.8637 59.3882 7.07774 59.5328C7.29178 59.6775 7.53653 59.7704 7.79264 59.8042C8.04875 59.838 8.30921 59.8118 8.55345 59.7276C8.79769 59.6435 9.01902 59.5037 9.19996 59.3193L12.9127 55.6066C13.1863 55.3328 13.3566 54.9728 13.3946 54.5876C13.4326 54.2025 13.3361 53.816 13.1213 53.4941C11.7648 51.4205 10.6778 49.1826 9.88652 46.8344C8.41025 42.4467 7.99878 37.7708 8.68606 33.1927C9.37335 28.6146 11.1397 24.2656 13.8393 20.5047C16.5388 16.7439 20.0942 13.6791 24.2118 11.5634C28.3295 9.44764 32.8913 8.34162 37.5207 8.33664C42.2896 8.3235 46.9877 9.49009 51.1966 11.7325L44.8907 18.0304C41.7365 16.8355 38.3393 16.4244 34.9911 16.8322C31.6429 17.24 28.4438 18.4546 25.6686 20.3716C22.8934 22.2887 20.6251 24.8509 19.0587 27.838C17.4922 30.8252 16.6745 34.148 16.6756 37.5209C16.6756 37.8668 16.768 39.4459 16.7971 39.7179C17.0519 42.1084 17.7165 44.4371 18.7617 46.602C18.8776 46.8421 19.0493 47.051 19.2624 47.2112C19.4755 47.3715 19.7238 47.4784 19.9866 47.5231C20.2495 47.5678 20.5192 47.549 20.7733 47.4682C21.0273 47.3875 21.2584 47.2471 21.4472 47.0589L25.218 43.2907C25.4197 43.0888 25.5663 42.8387 25.644 42.5642C25.7217 42.2896 25.7277 41.9997 25.6617 41.7221L25.3501 40.3781C25.1311 39.4414 25.0195 38.4828 25.0173 37.5209C25.0173 35.3324 25.5921 33.1822 26.6841 31.2856C27.7762 29.3891 29.3472 27.8125 31.24 26.7139C33.1327 25.6152 35.2809 25.033 37.4694 25.0254C39.6579 25.0178 41.81 25.5851 43.7104 26.6705L45.3713 27.6212C45.6884 27.8036 46.0568 27.8765 46.4195 27.8288C46.7822 27.7811 47.1191 27.6153 47.3782 27.3571L62.752 11.9834C62.9198 11.8154 63.0499 11.6136 63.1336 11.3913C63.2172 11.1691 63.2524 10.9316 63.2369 10.6946C63.2214 10.4577 63.1556 10.2268 63.0437 10.0173C62.9318 9.80785 62.7765 9.62469 62.5882 9.48004L60.3226 7.7293Z" fill="url(#paint1_linear_4678_18073)"/>
<path fill-rule="evenodd" clip-rule="evenodd" d="M333.506 37.6431C333.506 22.8824 345.241 11 360.001 11C374.762 11 386.571 22.8824 386.571 37.6431C386.571 52.4038 374.762 64.1386 360.001 64.1386C345.241 64.1386 333.506 52.4038 333.506 37.6431ZM340.886 37.6431C340.886 48.197 349.521 56.7582 360.001 56.7582C370.555 56.7582 379.19 48.197 379.19 37.6431C379.19 27.163 370.555 18.3804 360.001 18.3804C349.521 18.3804 340.886 27.163 340.886 37.6431ZM446.473 61.9981V13.1401C446.473 12.402 447.063 11.7378 447.875 11.7378H477.396C478.208 11.7378 478.799 12.402 478.799 13.1401V17.2731C478.799 18.0111 478.208 18.6753 477.396 18.6753H454.074V33.7313H473.78C474.518 33.7313 475.182 34.3955 475.182 35.1335V39.2665C475.182 40.0784 474.518 40.6688 473.78 40.6688H454.074V56.5366H477.396C478.208 56.5366 478.799 57.2008 478.799 57.9389V61.9981C478.799 62.7361 478.208 63.4003 477.396 63.4003H447.875C447.063 63.4003 446.473 62.7361 446.473 61.9981ZM492.713 61.9981V13.1401C492.713 12.402 493.303 11.7378 494.115 11.7378H514.19C523.046 11.7378 530.279 18.7491 530.279 27.5318C530.279 34.3217 525.777 39.9308 519.356 42.5139L529.467 61.26C529.984 62.2195 529.467 63.4003 528.212 63.4003H522.456C521.865 63.4003 521.423 63.0313 521.275 62.7361L511.459 43.1781H500.315V61.9981C500.315 62.7361 499.65 63.4003 498.912 63.4003H494.115C493.303 63.4003 492.713 62.7361 492.713 61.9981ZM500.462 36.831H513.599C518.397 36.831 522.603 32.7718 522.603 27.6794C522.603 22.8821 518.397 18.8967 513.599 18.8967H500.462V36.831ZM399.871 13.1403V61.9983C399.871 62.7363 400.462 63.4006 401.273 63.4006H406.071C406.809 63.4006 407.473 62.7363 407.473 61.9983V44.6544H418.174C427.178 44.6544 434.633 37.2003 434.633 28.0486C434.633 19.1184 427.178 11.738 418.101 11.738H401.273C400.462 11.738 399.871 12.4023 399.871 13.1403ZM417.658 37.4217H407.473V19.1184H417.658C422.75 19.1184 427.031 22.9562 427.031 27.9748C427.031 33.2887 422.75 37.4217 417.658 37.4217ZM298.164 13.1401V61.9981C298.164 62.7361 298.754 63.4003 299.566 63.4003H325.84C326.652 63.4003 327.243 62.7361 327.243 61.9981V57.9389C327.243 57.2008 326.652 56.5366 325.84 56.5366H305.84V13.1401C305.84 12.402 305.175 11.7378 304.437 11.7378H299.566C298.754 11.7378 298.164 12.402 298.164 13.1401ZM251.924 61.9981V13.1401C251.924 12.402 252.514 11.7378 253.326 11.7378H282.848C283.659 11.7378 284.25 12.402 284.25 13.1401V17.2731C284.25 18.0111 283.659 18.6753 282.848 18.6753H259.526V33.7313H279.231C279.969 33.7313 280.633 34.3955 280.633 35.1335V39.2665C280.633 40.0784 279.969 40.6688 279.231 40.6688H259.526V56.5366H282.848C283.659 56.5366 284.25 57.2008 284.25 57.9389V61.9981C284.25 62.7361 283.659 63.4003 282.848 63.4003H253.326C252.514 63.4003 251.924 62.7361 251.924 61.9981ZM193.271 13.6567L215.781 63.3265C216.002 63.7693 216.519 64.1384 217.036 64.1384H217.774C218.364 64.1384 218.807 63.7693 219.028 63.3265L241.686 13.6567C242.129 12.6972 241.538 11.7378 240.431 11.7378H235.191C234.527 11.7378 234.084 12.1806 233.937 12.5496L217.7 49.0824H217.257L201.02 12.5496C200.873 12.1806 200.356 11.7378 199.766 11.7378H194.526C193.419 11.7378 192.828 12.6972 193.271 13.6567ZM153.895 61.9981V13.1401C153.895 12.402 154.485 11.7378 155.297 11.7378H184.818C185.63 11.7378 186.221 12.402 186.221 13.1401V17.2731C186.221 18.0111 185.63 18.6753 184.818 18.6753H161.496V33.7313H181.202C181.94 33.7313 182.604 34.3955 182.604 35.1335V39.2665C182.604 40.0784 181.94 40.6688 181.202 40.6688H161.496V56.5366H184.818C185.63 56.5366 186.221 57.2008 186.221 57.9389V61.9981C186.221 62.7361 185.63 63.4003 184.818 63.4003H155.297C154.485 63.4003 153.895 62.7361 153.895 61.9981ZM96.2656 13.1403V61.9983C96.2656 62.7363 96.8561 63.4006 97.5941 63.4006H114.569C128.813 63.4006 140.474 51.8134 140.474 37.4955C140.474 23.3252 128.813 11.738 114.569 11.738H97.5941C96.8561 11.738 96.2656 12.4023 96.2656 13.1403ZM113.536 56.3892H103.794V18.7494H113.536C124.385 18.7494 132.282 26.6464 132.282 37.4955C132.282 48.4184 124.385 56.3892 113.536 56.3892Z" fill="white"/>
<defs>
<linearGradient id="paint0_linear_4678_18073" x1="18.2855" y1="46.6604" x2="73.7178" y2="46.6604" gradientUnits="userSpaceOnUse">
<stop stop-color="#AF8FF4"/>
<stop offset="1" stop-color="#5FBEFF"/>
</linearGradient>
<linearGradient id="paint1_linear_4678_18073" x1="0.223495" y1="28.622" x2="63.5752" y2="28.622" gradientUnits="userSpaceOnUse">
<stop stop-color="#68D6F9"/>
<stop offset="1" stop-color="#7EF0B2"/>
</linearGradient>
</defs>
</svg>
